<?xml version="1.0" ?><!DOCTYPE svg  PUBLIC '-//W3C//DTD SVG 1.1//EN'  'http://www.w3.org/Graphics/SVG/1.1/DTD/svg11.dtd'><svg height="6.82666in" style="shape-rendering:geometricPrecision; text-rendering:geometricPrecision; image-rendering:optimizeQuality; fill-rule:evenodd; clip-rule:evenodd" viewBox="0 0 6.82666 6.82666" width="6.82666in" xml:space="preserve" xmlns="http://www.w3.org/2000/svg" xmlns:xlink="http://www.w3.org/1999/xlink"><defs><style type="text/css">
   <![CDATA[
    .str0 {stroke:#373435;stroke-width:0.00694488;stroke-linecap:round;stroke-linejoin:round}
    .fil3 {fill:none}
    .fil2 {fill:#81868C}
    .fil0 {fill:#C3AE7E}
    .fil1 {fill:black;fill-rule:nonzero}
   ]]>
  </style></defs><g id="Layer_x0020_1"><path class="fil0 str0" d="M2.24406 2.12415l2.33976 0c0.0294528,0 0.0533346,0.0238819 0.0533346,0.0533346 0,0.0294528 -0.0238819,0.0533346 -0.0533346,0.0533346l-2.33976 0c-0.0294528,0 -0.0533346,-0.0238819 -0.0533346,-0.0533346 0,-0.0294528 0.0238819,-0.0533346 0.0533346,-0.0533346zm-0.398508 0.317709l3.13719 0c0.0294528,0 0.0533346,0.0238819 0.0533346,0.0533346 0,0.0294528 -0.0238819,0.0533346 -0.0533346,0.0533346l-3.13719 0c-0.0294528,0 -0.0533346,-0.0238819 -0.0533346,-0.0533346 0,-0.0294528 0.0238819,-0.0533346 0.0533346,-0.0533346zm-0.272866 0.269417l3.6813 0 0.336909 0 -2.17756 -1.73652 -2.17756 1.73652 0.336906 0zm1.06989 -0.798165c-0.0294528,0 -0.0533346,-0.0238819 -0.0533346,-0.0533346 0,-0.0294528 0.0238819,-0.0533346 0.0533346,-0.0533346l1.54232 0c0.0294528,0 0.0533346,0.0238819 0.0533346,0.0533346 0,0.0294528 -0.0238819,0.0533346 -0.0533346,0.0533346l-1.54232 0zm0.345173 -0.371043c0,-0.0294528 0.0238819,-0.0533346 0.0533346,-0.0533346l0.74489 0c0.0294528,0 0.0533346,0.0238819 0.0533346,0.0533346 0,0.0294528 -0.0238819,0.0533346 -0.0533346,0.0533346l-0.74489 0c-0.0294528,0 -0.0533346,-0.0238819 -0.0533346,-0.0533346z"/><path class="fil1" d="M1.57269 2.71127l3.6813 0c0.0294528,0 0.0533346,0.0238819 0.0533346,0.0533346l0 2.20878c0,0.0294528 -0.0238819,0.0533346 -0.0533346,0.0533346l-3.6813 0c-0.0294528,0 -0.0533346,-0.0238819 -0.0533346,-0.0533346l0 -2.20878c0,-0.0294528 0.0238819,-0.0533346 0.0533346,-0.0533346zm3.62796 0.106669l-3.57463 0 0 2.10211 3.57463 0 0 -2.10211z"/><path class="fil1" d="M1.44231 5.23558l3.94206 0 0 -0.208866 -3.94206 0 0 0.208866zm3.99539 0.106669l-4.04872 0c-0.0294528,0 -0.0533346,-0.0238819 -0.0533346,-0.0533346l0 -0.315535c0,-0.0294528 0.0238819,-0.0533346 0.0533346,-0.0533346l4.04872 0c0.0294528,0 0.0533346,0.0238819 0.0533346,0.0533346l0 0.315535c0,0.0294528 -0.0238819,0.0533346 -0.0533346,0.0533346z"/><path class="fil1" d="M1.05295 2.72091l2.32719 -1.85586 -6.29921e-005 -7.87402e-005c0.0207598,-0.0165551 0.0500827,-0.0151102 0.0691102,0.00220866l2.32707 1.85576 -0.033126 0.0416654 0.033252 -0.0416969c0.0230276,0.0183622 0.0268071,0.0519213 0.00844488,0.0749488 -0.0105236,0.0131969 -0.0260354,0.0200669 -0.0416969,0.0200787l0 3.93701e-006 -4.65961 0c-0.0294528,0 -0.0533346,-0.0238819 -0.0533346,-0.0533346 0,-0.0180787 0.00899606,-0.0340551 0.0227598,-0.0437008zm2.36038 -1.74616l-2.17756 1.73652 4.35511 0 -2.17756 -1.73652z"/><path class="fil1" d="M2.23957 3.2316c0,-0.0294528 -0.0238819,-0.0533346 -0.0533346,-0.0533346 -0.0294528,0 -0.0533346,0.0238819 -0.0533346,0.0533346l0 1.27479c0,0.0294528 0.0238819,0.0533346 0.0533346,0.0533346 0.0294528,0 0.0533346,-0.0238819 0.0533346,-0.0533346l0 -1.27479z"/><path class="fil1" d="M2.85311 3.2316c0,-0.0294528 -0.0238819,-0.0533346 -0.0533346,-0.0533346 -0.0294528,0 -0.0533346,0.0238819 -0.0533346,0.0533346l0 1.27479c0,0.0294528 0.0238819,0.0533346 0.0533346,0.0533346 0.0294528,0 0.0533346,-0.0238819 0.0533346,-0.0533346l0 -1.27479z"/><path class="fil1" d="M4.08022 3.2316c0,-0.0294528 -0.0238819,-0.0533346 -0.0533346,-0.0533346 -0.0294528,0 -0.0533346,0.0238819 -0.0533346,0.0533346l0 1.27479c0,0.0294528 0.0238819,0.0533346 0.0533346,0.0533346 0.0294528,0 0.0533346,-0.0238819 0.0533346,-0.0533346l0 -1.27479z"/><path class="fil1" d="M4.69376 3.2316c0,-0.0294528 -0.0238819,-0.0533346 -0.0533346,-0.0533346 -0.0294528,0 -0.0533346,0.0238819 -0.0533346,0.0533346l0 1.27479c0,0.0294528 0.0238819,0.0533346 0.0533346,0.0533346 0.0294528,0 0.0533346,-0.0238819 0.0533346,-0.0533346l0 -1.27479z"/><path class="fil1" d="M1.21016 5.55112l4.40635 0 0 -0.208866 -4.40635 0 0 0.208866zm4.45969 0.106669l-4.51302 0c-0.0294528,0 -0.0533346,-0.0238819 -0.0533346,-0.0533346l0 -0.315535c0,-0.0294528 0.0238819,-0.0533346 0.0533346,-0.0533346l4.51302 0c0.0294528,0 0.0533346,0.0238819 0.0533346,0.0533346l0 0.315535c0,0.0294528 -0.0238819,0.0533346 -0.0533346,0.0533346z"/><path class="fil1" d="M0.978012 5.86666l4.87064 0 0 -0.208866 -4.87064 0 0 0.208866zm4.92398 0.106669l-4.97731 0c-0.0294528,0 -0.0533346,-0.0238819 -0.0533346,-0.0533346l0 -0.315535c0,-0.0294528 0.0238819,-0.0533346 0.0533346,-0.0533346l4.97731 0c0.0294528,0 0.0533346,0.0238819 0.0533346,0.0533346l0 0.315535c0,0.0294528 -0.0238819,0.0533346 -0.0533346,0.0533346z"/><path class="fil1" d="M3.04108 1.48873c-0.0294528,0 -0.0533346,0.0238819 -0.0533346,0.0533346 0,0.0294528 0.0238819,0.0533346 0.0533346,0.0533346l0.74489 0c0.0294528,0 0.0533346,-0.0238819 0.0533346,-0.0533346 0,-0.0294528 -0.0238819,-0.0533346 -0.0533346,-0.0533346l-0.74489 0z"/><path class="fil1" d="M2.64257 1.80644c-0.0294528,0 -0.0533346,0.0238819 -0.0533346,0.0533346 0,0.0294528 0.0238819,0.0533346 0.0533346,0.0533346l1.54232 0c0.0294528,0 0.0533346,-0.0238819 0.0533346,-0.0533346 0,-0.0294528 -0.0238819,-0.0533346 -0.0533346,-0.0533346l-1.54232 0z"/><path class="fil1" d="M2.24406 2.12415c-0.0294528,0 -0.0533346,0.0238819 -0.0533346,0.0533346 0,0.0294528 0.0238819,0.0533346 0.0533346,0.0533346l2.33976 0c0.0294528,0 0.0533346,-0.0238819 0.0533346,-0.0533346 0,-0.0294528 -0.0238819,-0.0533346 -0.0533346,-0.0533346l-2.33976 0z"/><path class="fil1" d="M1.84555 2.44185c-0.0294528,0 -0.0533346,0.0238819 -0.0533346,0.0533346 0,0.0294528 0.0238819,0.0533346 0.0533346,0.0533346l3.13719 0c0.0294528,0 0.0533346,-0.0238819 0.0533346,-0.0533346 0,-0.0294528 -0.0238819,-0.0533346 -0.0533346,-0.0533346l-3.13719 0z"/><path class="fil1" d="M3.46667 3.2316c0,-0.0294528 -0.0238819,-0.0533346 -0.0533346,-0.0533346 -0.0294528,0 -0.0533346,0.0238819 -0.0533346,0.0533346l0 1.27479c0,0.0294528 0.0238819,0.0533346 0.0533346,0.0533346 0.0294528,0 0.0533346,-0.0238819 0.0533346,-0.0533346l0 -1.27479z"/><path class="fil0 str0" d="M3.36 3.2316c0,-0.0294528 0.0238819,-0.0533346 0.0533346,-0.0533346 0.0294528,0 0.0533346,0.0238819 0.0533346,0.0533346l0 1.27479c0,0.0294528 -0.0238819,0.0533346 -0.0533346,0.0533346 -0.0294528,0 -0.0533346,-0.0238819 -0.0533346,-0.0533346l0 -1.27479zm-0.613551 0c0,-0.0294528 0.0238819,-0.0533346 0.0533346,-0.0533346 0.0294528,0 0.0533346,0.0238819 0.0533346,0.0533346l0 1.27479c0,0.0294528 -0.0238819,0.0533346 -0.0533346,0.0533346 -0.0294528,0 -0.0533346,-0.0238819 -0.0533346,-0.0533346l0 -1.27479zm2.4542 -0.413657l-3.57463 0 0 2.10211 3.57463 0 0 -2.10211zm-0.613551 0.413657c0,-0.0294528 0.0238819,-0.0533346 0.0533346,-0.0533346 0.0294528,0 0.0533346,0.0238819 0.0533346,0.0533346l0 1.27479c0,0.0294528 -0.0238819,0.0533346 -0.0533346,0.0533346 -0.0294528,0 -0.0533346,-0.0238819 -0.0533346,-0.0533346l0 -1.27479zm-0.613547 0c0,-0.0294528 0.0238819,-0.0533346 0.0533346,-0.0533346 0.0294528,0 0.0533346,0.0238819 0.0533346,0.0533346l0 1.27479c0,0.0294528 -0.0238819,0.0533346 -0.0533346,0.0533346 -0.0294528,0 -0.0533346,-0.0238819 -0.0533346,-0.0533346l0 -1.27479zm-1.78731 -0.0533346c0.0294528,0 0.0533346,0.0238819 0.0533346,0.0533346l0 1.27479c0,0.0294528 -0.0238819,0.0533346 -0.0533346,0.0533346 -0.0294528,0 -0.0533346,-0.0238819 -0.0533346,-0.0533346l0 -1.27479c0,-0.0294528 0.0238819,-0.0533346 0.0533346,-0.0533346z"/><polygon class="fil2 str0" points="5.25398,5.02672 1.57269,5.02672 1.44231,5.02672 1.44231,5.23558 5.38436,5.23558 5.38436,5.02672 "/><polygon class="fil2 str0" points="5.4377,5.34225 1.38897,5.34225 1.21016,5.34226 1.21016,5.55112 5.61651,5.55112 5.61651,5.34226 "/><polygon class="fil2 str0" points="5.66984,5.65779 1.15682,5.65779 0.978012,5.6578 0.978012,5.86666 5.84865,5.86666 5.84865,5.6578 "/></g><rect class="fil3" height="6.82666" width="6.82666"/></svg>