<?xml version="1.0" encoding="UTF-8" standalone="no"?>
<!-- Created with Inkscape (http://www.inkscape.org/) -->

<svg
   xmlns:dc="http://purl.org/dc/elements/1.1/"
   xmlns:cc="http://creativecommons.org/ns#"
   xmlns:rdf="http://www.w3.org/1999/02/22-rdf-syntax-ns#"
   xmlns:svg="http://www.w3.org/2000/svg"
   xmlns="http://www.w3.org/2000/svg"
   xmlns:sodipodi="http://sodipodi.sourceforge.net/DTD/sodipodi-0.dtd"
   xmlns:inkscape="http://www.inkscape.org/namespaces/inkscape"
   width="42px"
   height="42px"
   viewBox="0 0 42 42"
   version="1.1"
   id="SVGRoot"
   inkscape:version="0.92.4 5da689c313, 2019-01-14"
   sodipodi:docname="gold-star.svg">
  <defs
     id="defs18" />
  <sodipodi:namedview
     id="base"
     pagecolor="#ffffff"
     bordercolor="#666666"
     borderopacity="1.0"
     inkscape:pageopacity="0.0"
     inkscape:pageshadow="2"
     inkscape:zoom="8.6199684"
     inkscape:cx="20.615578"
     inkscape:cy="28.839193"
     inkscape:document-units="px"
     inkscape:current-layer="layer1"
     showgrid="false"
     inkscape:window-width="1920"
     inkscape:window-height="1057"
     inkscape:window-x="0"
     inkscape:window-y="0"
     inkscape:window-maximized="1"
     inkscape:grid-bbox="true" />
  <metadata
     id="metadata21">
    <rdf:RDF>
      <cc:Work
         rdf:about="">
        <dc:format>image/svg+xml</dc:format>
        <dc:type
           rdf:resource="http://purl.org/dc/dcmitype/StillImage" />
        <dc:title></dc:title>
      </cc:Work>
    </rdf:RDF>
  </metadata>
  <g
     inkscape:label="Layer 1"
     inkscape:groupmode="layer"
     id="layer1">
    <path
       sodipodi:type="star"
       id="path31"
       sodipodi:sides="5"
       sodipodi:cx="18.655071"
       sodipodi:cy="19.783606"
       sodipodi:r1="19.721649"
       sodipodi:r2="9.8608246"
       sodipodi:arg1="0.93894195"
       sodipodi:arg2="1.5672605"
       inkscape:flatsided="false"
       inkscape:rounded="0"
       inkscape:randomized="0"
       d="M 30.303508,35.697667 18.689937,29.644369 7.119464,35.779643 9.2877026,22.863909 -0.122763,13.755639 12.830853,11.826575 18.585339,0.06207969 24.422875,11.785587 l 12.966933,1.837412 -9.34582,9.17459 z"
       inkscape:transform-center-x="0.02434798"
       inkscape:transform-center-y="-2.1894517"
       transform="matrix(1.1298873,0,0,1.1753906,0.01594536,-0.01088819)"
       style="fill:#ffff00" />
    <path
       style="fill:#ffff00;stroke-width:0.1160097"
       d="m 8.1561352,41.835854 c 0,-0.05998 0.523318,-3.364986 1.162929,-7.34446 C 9.9586751,30.51192 10.49377,27.170595 10.508164,27.066228 10.523901,26.952121 8.4404498,24.747638 5.2821208,21.536592 0.32393117,16.495644 0.04792211,16.193148 0.35170827,16.133019 0.52869874,16.097987 3.779669,15.592605 7.5760867,15.009946 11.372504,14.427288 14.510446,13.916433 14.54929,13.874714 c 0.03884,-0.04172 1.496597,-3.116758 3.23945,-6.8334187 1.742855,-3.716661 3.198897,-6.75649161 3.235651,-6.75517919 0.03675,0.001312 1.525649,3.05682099 3.308653,6.79001899 2.540932,5.3201269 3.293382,6.7987249 3.480291,6.8389379 0.131156,0.02822 3.344625,0.502841 7.141042,1.054718 3.796418,0.551876 6.949721,1.04683 7.007339,1.099894 0.05925,0.05457 -2.132994,2.371398 -5.046422,5.333209 -2.833151,2.880201 -5.166382,5.324933 -5.184956,5.432737 -0.01858,0.107803 0.519103,3.475405 1.19484,7.483559 0.675737,4.008154 1.212979,7.332322 1.19387,7.38704 -0.01911,0.05472 -2.879881,-1.44533 -6.357272,-3.333442 -3.477391,-1.888111 -6.410221,-3.457237 -6.5174,-3.486947 -0.140722,-0.03901 -9.622576,5.07283 -13.0012335,7.009202 -0.047854,0.02743 -0.087007,7.91e-4 -0.087007,-0.05919 z"
       id="path56"
       inkscape:connector-curvature="0" />
  </g>
</svg>
